<?xml version="1.0" encoding="UTF-8" standalone="no"?>
<svg
   xmlns:dc="http://purl.org/dc/elements/1.1/"
   xmlns:cc="http://creativecommons.org/ns#"
   xmlns:rdf="http://www.w3.org/1999/02/22-rdf-syntax-ns#"
   xmlns:svg="http://www.w3.org/2000/svg"
   xmlns="http://www.w3.org/2000/svg"
   viewBox="0 0 793.70667 1122.52"
   height="1122.52"
   width="793.70667"
   xml:space="preserve"
   id="svg2"
   version="1.1"><metadata
     id="metadata8"><rdf:RDF><cc:Work
         rdf:about=""><dc:format>image/svg+xml</dc:format><dc:type
           rdf:resource="http://purl.org/dc/dcmitype/StillImage" /></cc:Work></rdf:RDF></metadata><defs
     id="defs6"><clipPath
       id="clipPath18"
       clipPathUnits="userSpaceOnUse"><path
         id="path16"
         d="M 0,841.89 H 595.28 V 0 H 0 Z" /></clipPath></defs><g
     transform="matrix(1.3333333,0,0,-1.3333333,0,1122.52)"
     id="g10"><g
       id="g12"><g
         clip-path="url(#clipPath18)"
         id="g14"><g
           transform="translate(319.5371,624.8428)"
           id="g20"><path
             id="path22"
             style="fill:#2e3031;fill-opacity:1;fill-rule:evenodd;stroke:none"
             d="m 0,0 c 87.663,-30.596 163.054,-88.713 226.155,-164.312 -2.076,-99.311 -41.023,-198.622 -86.385,-265.865 -91.896,-26.569 -186.68,-28.499 -279.542,0 -49.116,77.085 -85.056,172.852 -86.387,265.865 C -159.496,-86.165 -98.414,-38.021 0,0" /></g><g
           transform="translate(319.4756,616.8506)"
           id="g24"><path
             id="path26"
             style="fill:#f9a33b;fill-opacity:1;fill-rule:evenodd;stroke:none"
             d="m 0,0 c 84.745,-29.576 157.622,-85.759 218.636,-158.841 -2.014,-96.004 -39.672,-192.003 -83.51,-257.016 -88.843,-25.678 -180.475,-27.546 -270.242,0 -47.481,74.523 -82.221,167.095 -83.508,257.016 C -154.181,-83.298 -95.134,-36.758 0,0" /></g><g
           transform="translate(319.4756,611.4624)"
           id="g28"><path
             id="path30"
             style="fill:#2e3031;fill-opacity:1;fill-rule:evenodd;stroke:none"
             d="m 0,0 c 82.65,-28.842 153.728,-83.635 213.23,-154.912 -1.965,-93.623 -38.684,-187.257 -81.447,-250.667 -86.643,-25.046 -176.014,-26.858 -263.557,0 -46.307,72.68 -80.19,162.973 -81.447,250.667 C -150.37,-81.237 -92.787,-35.845 0,0" /></g><g
           transform="translate(319.4756,605.7837)"
           id="g32"><path
             id="path34"
             style="fill:#f9a33b;fill-opacity:1;fill-rule:evenodd;stroke:none"
             d="m 0,0 c 80.439,-28.075 149.611,-81.403 207.528,-150.776 -1.916,-91.121 -37.644,-182.249 -79.27,-243.963 -84.321,-24.378 -171.297,-26.146 -256.512,0 -45.066,70.744 -78.043,158.616 -79.262,243.963 C -146.349,-79.066 -90.298,-34.89 0,0" /></g><g
           transform="translate(319.4756,599.9258)"
           id="g36"><path
             id="path38"
             style="fill:#f9a33b;fill-opacity:1;fill-rule:evenodd;stroke:none"
             d="m 0,0 c 78.166,-27.279 145.378,-79.099 201.65,-146.502 -1.855,-88.542 -36.582,-177.09 -77.023,-237.055 -81.938,-23.687 -166.45,-25.401 -249.247,0 -43.793,68.731 -75.836,154.116 -77.024,237.055 C -142.205,-76.83 -87.743,-33.901 0,0" /></g><g
           transform="translate(239.0127,463.7993)"
           id="g40"><path
             id="path42"
             style="fill:#ffffff;fill-opacity:1;fill-rule:evenodd;stroke:none"
             d="m 0,0 c 2.235,0 4.177,-1.945 4.177,-4.334 0,-2.239 -1.942,-4.183 -4.177,-4.183 -2.396,0 -4.338,1.944 -4.338,4.183 C -4.338,-1.945 -2.396,0 0,0 m -0.154,-19.271 c 2.242,0 4.184,-1.944 4.184,-4.332 0,-2.242 -1.942,-4.183 -4.184,-4.183 -2.39,0 -4.331,1.941 -4.331,4.183 0,2.388 1.941,4.332 4.331,4.332 m 2.691,-17.18 c 2.242,0 4.183,-1.941 4.183,-4.334 0,-2.239 -1.941,-4.18 -4.183,-4.18 -2.39,0 -4.331,1.941 -4.331,4.18 0,2.393 1.941,4.334 4.331,4.334 M 14.485,72.6 C 17.176,67.824 20.309,65.731 18.816,58.409 17.324,50.491 6.118,44.965 0.147,33.312 -3.293,26.591 -6.881,19.72 -6.881,6.868 c 0,0 -0.744,1.198 -7.617,1.492 -1.34,-7.165 1.351,-17.326 7.617,-22.999 -1.941,-2.243 -3.428,-5.232 -6.869,-9.264 1.192,-5.081 6.427,-7.621 10.162,-11.952 -1.646,-3.137 -7.771,-5.977 -9.264,-11.65 7.322,1.191 21.366,-6.874 23.16,-18.97 1.045,-6.875 2.236,-15.242 2.236,-23.903 0,-6.721 0.897,-21.367 -4.632,-24.352 6.721,-5.978 5.977,-12.846 7.765,-19.867 1.794,-6.875 4.485,-12.152 8.219,-14.192 6.058,-3.316 15.088,-1.351 17.631,6.721 0.596,1.794 -0.601,5.222 -2.089,6.868 -2.844,2.992 -7.174,2.752 -8.821,-2.985 -3.281,-2.396 -5.676,0 -5.676,6.573 0,6.573 1.794,15.235 4.036,17.926 -6.874,4.337 -3.053,24.37 -1.493,34.064 1.536,9.51 4.362,18.163 7.618,25.243 6.081,10.864 12.397,15.686 20.617,23.008 -7.618,4.181 -13.147,15.982 -14.646,24.349 -3.281,-6.423 -9.258,-17.478 -15.383,-12.105 -4.926,4.184 1.346,18.23 17.625,25.101 -9.257,3.585 -11.5,13.297 -9.859,25.098 0.896,6.574 3.734,12.849 2.088,23.157 C 34.058,64.534 26.882,73.497 14.485,72.6" /></g><g
           transform="translate(348.5088,453.1929)"
           id="g44"><path
             id="path46"
             style="fill:#2e3031;fill-opacity:1;fill-rule:evenodd;stroke:none"
             d="m 0,0 c -6.721,-3.489 -18.222,-6.631 -28.983,-6.631 -10.905,0 -22.621,2.995 -29.722,6.477 -0.908,0.443 -3.329,-1.458 -2.248,-3.283 3.919,-6.598 19.204,-10.815 32.203,-10.815 12.999,0 26.268,3.428 31.588,10.815 C 3.827,-2.067 1.216,0.63 0,0 m -38.838,-16.433 c 2.531,-1.198 6.721,-1.647 9.559,-1.647 2.838,0 7.323,0.449 10.309,1.347 -1.346,-14.041 -0.897,-33.017 -9.713,-33.017 -8.816,0 -8.669,17.483 -10.155,33.317 M 0.761,10.732 C -6.808,6.948 -17.612,4.008 -28.518,4.008 c -11.057,0 -23.3,4.592 -30.487,7.492 -0.929,0.377 -3.214,-1.395 -2.243,-3.284 3.317,-6.484 19.117,-11.355 32.265,-11.355 13.145,0 24.99,1.738 32.583,10.434 1.105,1.275 -1.61,4.051 -2.839,3.437" /></g><g
           transform="translate(232.0703,409.8838)"
           id="g48"><path
             id="path50"
             style="fill:#2e3031;fill-opacity:1;fill-rule:evenodd;stroke:none"
             d="m 0,0 c -5.142,1.929 -10.578,0.998 -14.888,-1.25 -5.676,-3.585 -11.19,-9.67 -9.992,-19.229 1.192,-7.918 5.375,-11.806 8.364,-14.197 -7.466,-5.375 -16.282,1.647 -16.282,11.359 -0.151,11.647 15.834,49.146 15.834,66.027 1.21,8.929 -1.794,38.242 -8.964,45.561 -16.881,-21.51 -22.705,-39.583 -23.451,-55.123 -0.749,-15.385 -4.036,-80.066 23.004,-78.126 5.23,0.295 8.664,1.941 11.204,4.03 -0.746,0.148 -1.493,0.897 -1.493,1.647 0,1.192 0.894,1.794 1.791,1.794 1.196,0 1.791,-0.455 1.791,-1.351 v 0.153 c 0.301,-1.346 0.448,-2.992 0.747,-4.928 -6.272,-7.475 -20.316,-8.373 -27.187,-2.991 -7.47,5.978 -10.665,15.389 -13.801,27.037 -3.326,15.391 -3.379,37.797 -0.839,55.279 -18.078,-8.07 -22.855,-33.763 -14.344,-60.207 4.485,-13.594 18.678,-40.932 45.269,-34.064 3.284,0.75 6.721,3.293 9.56,6.131 -0.747,0.295 -1.196,1.045 -1.196,1.64 0,1.199 0.6,1.794 1.791,1.794 0.599,0 1.048,-0.154 1.346,-0.595 0.3,-1.794 0.448,-3.736 0.746,-5.825 -5.228,-6.726 -14.443,-9.461 -22.809,-9.011 -17.18,0.743 -28.281,15.112 -35.005,28.879 -7.912,-27.644 15.242,-41.983 30.925,-41.983 12.698,0 21.511,5.382 26.143,11.659 -0.747,0 -1.643,0.59 -1.643,1.635 0,0.897 0.896,1.793 1.793,1.793 0.898,0 1.345,-0.294 1.647,-0.748 0,0 0,0.153 0.147,0.307 0.294,-2.248 0.946,-3.834 1.4,-6.07 -3.74,-5.376 -10.754,-9.792 -18.183,-11.893 -14.901,-3.704 -27.528,-0.271 -38.193,9.595 -1.643,-21.807 28.514,-24.37 38.973,-22.582 8.978,1.345 14.059,5.996 17.649,12.274 -1.044,0 -1.646,0.897 -1.646,1.646 0,1.192 0.602,1.788 1.793,1.788 0.596,0 1.045,-0.147 1.34,-0.449 0,0 0,0.149 0.154,0.302 0.596,-2.095 1.197,-4.331 1.941,-6.427 -4.749,-8.9 -14.36,-13.17 -18.694,-14.066 -16.783,-3.233 -22.079,-0.106 -33.499,4.521 4.295,-23.676 34.599,-19.241 41.922,-15.654 5.977,2.986 10.572,7.575 12.808,14.001 0,0 -0.148,-0.159 -0.295,-0.159 -1.198,0 -1.794,0.601 -1.794,1.799 0,0.897 0.596,1.788 1.794,1.788 0.443,0 0.897,-0.148 1.339,-0.443 3.14,-6.573 7.323,-12.101 12.852,-15.689 16.131,-10.161 35.403,-4.184 48.248,-5.074 -2.088,-8.668 6.272,-8.668 9.265,-6.874 4.182,2.684 4.171,8.741 1.572,11.935 -4.19,5.677 -17.852,1.512 -35.188,4.792 -14.339,1.794 -27.78,15.543 -27.78,36.749 0,8.668 -2.985,28.689 -0.3,40.336 -5.094,-3.539 -10.537,-3.588 -14.075,-2.482 -4.091,1.554 -8.631,5.504 -8.631,12.643 0.089,4.075 1.49,5.974 4.183,8.364 -0.599,-1.494 -0.899,-2.986 -0.899,-4.777 0,-7.175 3.289,-11.352 10.459,-11.352 7.108,0.233 12.249,4.177 12.249,11.352 C 10.266,-4.973 4.196,-1.665 0,0" /></g><g
           transform="translate(356.875,254.8076)"
           id="g52"><path
             id="path54"
             style="fill:#ffffff;fill-opacity:1;fill-rule:evenodd;stroke:none"
             d="m 0,0 c 5.382,-4.631 13.896,-8.815 22.559,-8.815 8.219,0 15.984,6.124 19.123,7.618 0.891,0.448 2.833,1.05 5.375,0.595 -5.075,-4.029 -6.874,-7.919 -9.559,-10.308 -4.036,-3.735 -8.814,-4.927 -14.939,-4.927 -15.537,0.149 -22.705,13.294 -26.896,15.088 z m 5.529,0 c 5.228,-3.292 9.86,-5.087 16.882,-5.087 6.721,0 9.11,1.795 13.589,5.087 z m 39.139,24.198 c 0,0 -13.301,-0.147 -17.479,-5.83 C 23.001,12.692 18.522,8.515 13.896,4.78 c 5.825,-0.897 3.735,-0.602 10.001,0.443 6.279,1.049 12.551,8.366 13.3,10.761 1.199,3.434 7.772,9.559 7.471,8.214 m 24.345,-0.147 c 0,0 -15.979,1.787 -20.764,-2.242 C 43.47,17.779 39.587,8.214 30.176,4.473 36,3.582 43.924,4.03 48.852,6.125 c 4.925,2.089 9.11,7.464 10.307,9.859 1.192,2.384 9.854,8.067 9.854,8.067 m -41.529,0.147 c 0,0 -11.795,2.242 -19.423,-2.838 C 0.449,16.279 -0.294,8.515 -9.559,4.78 -3.888,3.883 0.75,4.473 7.022,5.529 c 6.272,1.044 10.456,6.715 12.397,10.001 1.788,3.146 8.065,8.668 8.065,8.668 M 6.427,24.941 c 0,0 -9.719,0.75 -11.955,-4.926 -2.39,-6.273 -6.574,-11.058 -9.411,-14.043 6.277,0.896 12.851,7.469 13.895,10.756 1.647,4.632 7.765,9.712 7.471,8.213 m -43.925,-50.238 c -12.938,-2.765 -32.411,7.217 -31.821,24.695 4.183,-1.044 7.641,-7.144 11.506,-9.264 4.047,-2.211 8.852,-5.455 20.463,-3.077 12.765,-2.685 16.427,0.558 20.481,2.777 3.864,2.113 7.01,9.263 11.193,9.564 0.602,-17.478 -17.815,-27.693 -31.822,-24.695 M -12.249,0 h -50.344 c 4.332,-7.47 15.395,-13.048 25.095,-8.601 12.532,-5.134 22.109,2.47 25.249,8.601 M -37.646,51.234 C -43.026,34.808 -63.643,30.021 -63.938,20.015 -64.233,8.367 -52.137,4.178 -37.646,4.178 c 14.493,0 26.588,3.44 26.588,15.837 0,11.353 -19.867,12.704 -26.588,31.219 M -74.688,0 c -5.382,-4.631 -14.05,-8.815 -22.559,-8.815 -9.718,0 -12.851,3.882 -17.777,7.169 -0.75,0.595 -3.441,2.396 -6.727,1.646 5.081,-3.734 5.081,-8.071 8.815,-11.352 5.234,-4.485 9.853,-4.633 15.689,-4.485 15.684,0.295 22.7,13.294 26.884,15.088 z m -6.131,0 c -5.235,-3.292 -10.456,-4.631 -17.478,-4.631 -6.72,0 -7.918,1.339 -12.403,4.631 z m -38.542,24.198 c 0,0 13.293,-0.147 17.477,-5.83 4.183,-5.676 8.667,-9.853 13.3,-13.588 -5.83,-0.897 -3.735,-0.602 -10.013,0.443 -6.273,1.049 -12.545,8.366 -13.294,10.761 -1.192,3.434 -7.766,9.559 -7.47,8.214 m -24.353,-0.147 c 0,0 15.985,1.787 20.765,-2.242 4.78,-4.03 8.661,-13.595 18.079,-17.336 -5.83,-0.891 -13.742,-0.443 -18.669,1.652 -4.933,2.089 -9.116,7.464 -10.308,9.859 -1.198,2.384 -9.867,8.067 -9.867,8.067 m 41.528,0.147 c 0,0 11.808,2.242 19.425,-2.838 7.617,-5.081 8.368,-12.845 17.625,-16.58 -5.676,-0.897 -10.302,-0.307 -16.58,0.749 -6.278,1.044 -10.456,6.715 -12.397,10.001 -1.794,3.146 -8.073,8.668 -8.073,8.668 m 21.071,0.743 c 0,0 9.707,0.75 11.949,-4.926 2.39,-6.273 6.573,-11.058 9.406,-14.043 -6.266,0.896 -12.84,7.469 -13.89,10.756 -1.641,4.632 -7.765,9.712 -7.465,8.213" /></g><g
           transform="translate(313.7012,546.2588)"
           id="g56"><path
             id="path58"
             style="fill:#ec3439;fill-opacity:1;fill-rule:evenodd;stroke:none"
             d="m 0,0 c 1.499,-24.198 -24.536,-36.601 -28.087,-52.134 -3.145,-13.794 0,-32.42 33.763,-33.016 26.895,-0.6 35.556,8.364 34.66,25.392 -1.05,16.286 -21.213,22.414 -18.073,38.546 -7.028,-2.688 -11.353,-9.559 -9.866,-16.58 2.543,-11.654 9.117,-23.456 -6.272,-23.756 -5.376,0 -8.963,5.378 -7.316,11.951 2.087,8.515 10.602,20.464 10.602,31.223 C 9.411,-11.051 7.175,-4.18 0,0" /></g><g
           transform="translate(319.377,399.8604)"
           id="g60"><path
             id="path62"
             style="fill:#ec3439;fill-opacity:1;fill-rule:evenodd;stroke:none"
             d="m 0,0 c -24.352,0 -44.064,-19.873 -44.064,-44.218 0,-24.352 19.712,-44.071 44.064,-44.071 24.353,0 44.219,19.719 44.219,44.071 C 44.219,-19.873 24.353,0 0,0 m -0.147,-33.91 c -5.676,0 -10.155,-4.484 -10.155,-10.16 0,-5.677 4.479,-10.456 10.155,-10.456 5.676,0 10.456,4.779 10.456,10.456 0,5.676 -4.78,10.16 -10.456,10.16 m -16.279,-7.47 c 0.596,3.587 -10.91,7.323 -15.69,10.007 -1.198,-2.684 -2.089,-3.729 -2.396,-6.573 -0.743,-3.286 -0.443,-4.33 0,-7.317 6.874,0.301 17.484,0.301 18.086,3.883 m 2.088,-11.206 c -1.794,3.134 -12.998,-1.345 -18.38,-2.389 0.749,-2.838 0.749,-4.184 2.396,-6.573 1.492,-2.992 2.383,-3.588 4.632,-5.676 5.074,4.638 13.294,11.506 11.352,14.638 m 8.816,-7.169 c -3.441,1.198 -9.111,-9.417 -12.55,-13.741 2.383,-1.647 3.286,-2.692 6.125,-3.435 2.984,-1.344 4.029,-1.198 7.168,-1.344 0.897,6.713 2.684,17.329 -0.743,18.52 m 11.346,0.154 c -3.28,-1.345 -0.896,-13.146 -0.743,-18.674 2.844,0.294 4.184,0.146 6.874,1.344 3.133,0.892 3.883,1.64 6.42,3.581 -3.729,5.677 -9.11,14.942 -12.551,13.749 m 8.668,7.311 c -1.64,-3.134 7.771,-10.604 11.353,-14.781 2.094,2.09 3.139,2.839 4.478,5.523 1.794,2.691 1.794,3.735 2.543,6.874 -6.426,1.942 -16.58,5.523 -18.374,2.384 m 1.942,11.205 c 0.749,-3.428 12.698,-3.133 18.226,-4.03 0.148,2.985 0.443,4.177 -0.146,7.169 -0.456,3.139 -1.052,4.036 -2.544,6.874 -6.125,-2.691 -16.28,-6.425 -15.536,-10.013 m -5.83,9.866 c 2.843,-2.089 11.807,5.676 16.586,8.661 -1.794,2.384 -2.236,3.435 -4.631,5.376 -2.39,2.095 -3.441,2.39 -6.426,3.587 -2.987,-5.976 -8.362,-15.387 -5.529,-17.624 m -10.751,3.882 C 3.44,-27.189 5.234,-15.536 7.022,-10.16 4.03,-9.411 3.133,-8.963 0,-8.963 c -3.139,0 -4.177,-0.448 -7.168,-1.345 1.492,-6.573 3.434,-17.175 7.021,-17.029 m -10.757,-4.184 c 2.839,2.39 -3.58,12.699 -5.522,17.773 -2.691,-1.192 -4.043,-1.486 -6.131,-3.434 -2.691,-2.095 -3.133,-2.992 -4.632,-5.671 5.381,-4.189 13.601,-10.91 16.285,-8.668" /></g><g
           transform="translate(406.8877,409.8838)"
           id="g64"><path
             id="path66"
             style="fill:#2e3031;fill-opacity:1;fill-rule:evenodd;stroke:none"
             d="m 0,0 c 5.142,1.929 10.577,0.998 14.885,-1.25 5.676,-3.585 11.186,-9.67 9.988,-19.229 -1.191,-7.918 -5.375,-11.806 -8.367,-14.197 7.471,-5.375 16.286,1.647 16.286,11.359 0.153,11.647 -15.832,49.146 -15.832,66.027 -1.21,8.929 1.795,38.242 8.958,45.561 16.888,-21.51 22.711,-39.583 23.454,-55.123 0.75,-15.385 4.036,-80.066 -23,-78.126 -5.233,0.295 -8.662,1.941 -11.205,4.03 0.75,0.148 1.493,0.897 1.493,1.647 0,1.192 -0.897,1.794 -1.795,1.794 -1.197,0 -1.786,-0.455 -1.786,-1.351 v 0.153 c -0.308,-1.346 -0.449,-2.992 -0.751,-4.928 6.273,-7.475 20.317,-8.373 27.191,-2.991 7.469,5.978 10.665,15.389 13.796,27.037 3.331,15.391 3.379,37.797 0.836,55.279 18.08,-8.07 22.86,-33.763 14.351,-60.207 -4.484,-13.594 -18.676,-40.932 -45.275,-34.064 -3.281,0.75 -6.721,3.293 -9.559,6.131 0.75,0.295 1.197,1.045 1.197,1.64 0,1.199 -0.594,1.794 -1.786,1.794 -0.602,0 -1.045,-0.154 -1.352,-0.595 -0.295,-1.794 -0.443,-3.736 -0.744,-5.825 5.228,-6.726 14.443,-9.461 22.81,-9.011 17.177,0.743 28.283,15.112 35.004,28.879 7.912,-27.644 -15.241,-41.983 -30.925,-41.983 -12.692,0 -21.513,5.382 -26.145,11.659 0.75,0 1.646,0.59 1.646,1.635 0,0.897 -0.896,1.793 -1.793,1.793 -0.897,0 -1.347,-0.294 -1.647,-0.748 0,0 0,0.153 -0.147,0.307 -0.296,-2.248 -0.947,-3.834 -1.395,-6.07 3.735,-5.376 10.745,-9.792 18.177,-11.893 14.904,-3.704 27.529,-0.271 38.199,9.595 1.64,-21.807 -28.517,-24.37 -38.978,-22.582 -8.976,1.345 -14.062,5.996 -17.65,12.274 1.05,0 1.647,0.897 1.647,1.646 0,1.192 -0.597,1.788 -1.795,1.788 -0.595,0 -1.044,-0.147 -1.339,-0.449 0,0 0,0.149 -0.153,0.302 -0.596,-2.095 -1.192,-4.331 -1.935,-6.427 4.743,-8.9 14.351,-13.17 18.688,-14.066 16.782,-3.233 22.078,-0.106 33.505,4.521 -4.295,-23.676 -34.606,-19.241 -41.928,-15.654 -5.972,2.986 -10.565,7.575 -12.808,14.001 0,0 0.148,-0.159 0.294,-0.159 1.198,0 1.793,0.601 1.793,1.799 0,0.897 -0.595,1.788 -1.793,1.788 -0.442,0 -0.89,-0.148 -1.338,-0.443 -3.14,-6.573 -7.324,-12.101 -12.852,-15.689 -16.133,-10.161 -35.403,-4.184 -48.249,-5.074 2.089,-8.668 -6.272,-8.668 -9.264,-6.874 -4.183,2.684 -4.172,8.741 -1.572,11.935 4.189,5.677 17.852,1.512 35.188,4.792 14.337,1.794 27.779,15.543 27.779,36.749 0,8.668 2.986,28.689 0.302,40.336 5.092,-3.539 10.535,-3.588 14.073,-2.482 4.092,1.554 8.638,5.504 8.638,12.643 -0.098,4.075 -1.499,5.974 -4.191,8.364 0.603,-1.494 0.898,-2.986 0.898,-4.777 0,-7.175 -3.287,-11.352 -10.456,-11.352 -7.108,0.233 -12.25,4.177 -12.25,11.352 C -10.272,-4.973 -4.203,-1.665 0,0" /></g><g
           transform="translate(399.7422,463.7993)"
           id="g68"><path
             id="path70"
             style="fill:#ffffff;fill-opacity:1;fill-rule:evenodd;stroke:none"
             d="m 0,0 c -2.235,0 -4.177,-1.945 -4.177,-4.334 0,-2.239 1.942,-4.183 4.177,-4.183 2.396,0 4.337,1.944 4.337,4.183 C 4.337,-1.945 2.396,0 0,0 m 0.148,-19.271 c -2.236,0 -4.177,-1.944 -4.177,-4.332 0,-2.242 1.941,-4.183 4.177,-4.183 2.396,0 4.337,1.941 4.337,4.183 0,2.388 -1.941,4.332 -4.337,4.332 m -2.691,-17.18 c -2.236,0 -4.178,-1.941 -4.178,-4.334 0,-2.239 1.942,-4.18 4.178,-4.18 2.396,0 4.337,1.941 4.337,4.18 0,2.393 -1.941,4.334 -4.337,4.334 M -14.485,72.6 c -2.692,-4.776 -5.83,-6.869 -4.337,-14.191 1.499,-7.918 12.704,-13.444 18.675,-25.097 3.44,-6.721 7.022,-13.592 7.022,-26.444 0,0 0.743,1.198 7.624,1.492 1.339,-7.165 -1.353,-17.326 -7.624,-22.999 1.947,-2.243 3.434,-5.232 6.873,-9.264 -1.197,-5.081 -6.425,-7.621 -10.16,-11.952 1.646,-3.137 7.765,-5.977 9.264,-11.65 -7.323,1.191 -21.366,-6.874 -23.16,-18.97 -1.044,-6.875 -2.236,-15.242 -2.236,-23.903 0,-6.721 -0.897,-21.367 4.632,-24.352 -6.727,-5.978 -5.978,-12.846 -7.777,-19.867 -1.782,-6.875 -4.473,-12.152 -8.208,-14.192 -6.063,-3.316 -15.087,-1.351 -17.631,6.721 -0.596,1.794 0.602,5.222 2.09,6.868 2.837,2.992 7.174,2.752 8.821,-2.985 3.28,-2.396 5.677,0 5.677,6.573 0,6.573 -1.8,15.235 -4.037,17.926 6.874,4.337 3.053,24.37 1.493,34.064 -1.537,9.51 -4.368,18.163 -7.618,25.243 -6.087,10.864 -12.397,15.686 -20.617,23.008 7.618,4.181 13.147,15.982 14.647,24.349 3.279,-6.423 9.251,-17.478 15.382,-12.105 4.927,4.184 -1.346,18.23 -17.631,25.101 9.264,3.585 11.5,13.297 9.86,25.098 -0.892,6.574 -3.735,12.849 -2.09,23.157 1.494,10.305 8.669,19.268 21.066,18.371" /></g></g></g></g></svg>