<?xml version="1.0" encoding="utf-8"?>
<!-- Generator: Adobe Illustrator 26.5.0, SVG Export Plug-In . SVG Version: 6.00 Build 0)  -->
<svg version="1.1" id="Layer_1" xmlns="http://www.w3.org/2000/svg" xmlns:xlink="http://www.w3.org/1999/xlink" x="0px" y="0px"
	 viewBox="0 0 512 512" style="enable-background:new 0 0 512 512;" xml:space="preserve">
<style type="text/css">
	.st0{fill:#0071BC;}
	.st1{fill:#BDD85F;}
	.st2{fill:#D71920;}
	.st3{fill:#231F20;}
</style>
<g id="XMLID_1_">
	<path id="path6565" class="st0" d="M0,317.01c0,0,35.7-52.58,41.38-61.3c5.67-8.72,10.1-9.55,25.88-9.55s29.47,0,29.47,0
		s-38.47,56.6-41.93,62.69c-3.6,5.95-13.56,8.16-22.56,8.16C23.11,317.01,0,317.01,0,317.01z"/>
	<path id="path6567" class="st1" d="M85.93,288.5c0,0,17.02-24.35,22.42-32.66c5.4-8.3,9.55-8.99,24.63-8.99
		c14.94,0,27.95,0,27.95,0s-19.65,28.23-22.97,33.9c-3.32,5.67-13.01,7.75-21.45,7.75C107.94,288.5,85.93,288.5,85.93,288.5z"/>
	<path id="path6569" class="st2" d="M160.93,236.75c0,0-17.02-24.35-22.42-32.66c-5.4-8.3-9.55-8.99-24.63-8.99
		c-14.94,0-27.95,0-27.95,0s19.65,28.23,22.97,33.9c3.32,5.67,13.01,7.75,21.45,7.75C138.93,236.75,160.93,236.75,160.93,236.75z"/>
	<path id="path6573" class="st3" d="M192.76,248.09h17.85c3.87,0,6.78,1.11,8.72,3.18c1.94,2.08,2.91,5.12,2.91,8.86
		c0,4.01-1.11,7.06-3.18,9.27c-2.08,2.21-5.4,3.32-9.69,3.32h-5.81v14.53h-10.79V248.09L192.76,248.09z M203.55,264.84h2.63
		c2.08,0,3.46-0.42,4.43-1.25c0.83-0.83,1.25-1.8,1.25-3.18c0-1.25-0.42-2.21-1.11-3.18c-0.69-0.83-2.08-1.25-4.15-1.25h-3.04
		L203.55,264.84L203.55,264.84z"/>
	<path id="path6575" class="st3" d="M227.77,248.09h28.92v8.3h-18.13v6.23h16.74v8.03h-16.74v7.75h18.68v8.86h-29.47L227.77,248.09
		L227.77,248.09z"/>
	<path id="path6577" class="st3" d="M263.06,287.25v-39.16h17.99c3.32,0,5.81,0.28,7.61,0.97c1.8,0.69,3.18,1.8,4.29,3.6
		c1.11,1.8,1.66,3.87,1.66,6.37c0,2.21-0.42,4.01-1.25,5.67c-0.83,1.52-1.94,2.91-3.46,3.87c-0.97,0.69-2.21,1.11-3.74,1.52
		c1.25,0.55,2.21,0.97,2.77,1.38c0.42,0.28,0.97,0.97,1.66,2.08c0.69,1.11,1.25,1.8,1.52,2.49l5.26,11.35H285.2l-5.81-12.04
		c-0.69-1.52-1.38-2.49-1.94-3.04c-0.83-0.55-1.66-0.97-2.63-0.97h-0.83v15.91L263.06,287.25L263.06,287.25z M273.99,264.01h4.57
		c0.55,0,1.38-0.14,2.77-0.55c0.69-0.14,1.25-0.55,1.8-1.25c0.42-0.69,0.69-1.38,0.69-2.21c0-1.25-0.42-2.21-1.11-2.91
		s-2.08-0.97-4.01-0.97h-4.7V264.01L273.99,264.01z"/>
	<path id="path6579" class="st3" d="M297.93,248.09h32.66v9.69h-11.07v29.47h-10.79v-29.47h-10.93L297.93,248.09L297.93,248.09z"/>
	<path id="path6581" class="st3" d="M353.56,280.75h-12.18l-1.8,6.5h-10.93l13.15-39.16h11.76l13.01,39.16h-11.21L353.56,280.75z
		 M351.2,272.31l-3.74-14.11l-3.87,14.11H351.2z"/>
	<path id="path6583" class="st3" d="M372.65,248.09h14.25l5.4,23.94l5.4-23.94h14.11l2.91,39.16h-8.86l-2.91-29.89l-6.78,29.89
		h-8.03l-6.78-29.89l-2.35,29.89h-8.86L372.65,248.09z"/>
	<path id="path6585" class="st3" d="M419.15,248.09h10.79v39.16h-10.79V248.09z"/>
	<path id="path6587" class="st3" d="M437.69,248.09h10.1l13.15,21.73v-21.73h10.1v39.16h-10.1l-13.01-21.59v21.59h-10.1
		L437.69,248.09L437.69,248.09z"/>
	<path id="path6589" class="st3" d="M498.99,280.75h-12.18l-1.8,6.5h-10.93l13.15-39.16h11.76L512,287.25h-11.21L498.99,280.75z
		 M496.78,272.31l-3.74-14.11l-3.87,14.11H496.78z"/>
</g>
</svg>
