<svg id="logosandtypes_com" xmlns="http://www.w3.org/2000/svg" viewBox="0 0 150 150"><path d="M0 0h150v150H0V0z" fill="none"/><path d="M.2 131.2s33-48.6 38.2-56.6 9.3-8.8 23.9-8.8h27.2S54 118.1 50.8 123.6s-12.6 7.6-20.9 7.6H.2z" fill="#1072ba"/><path d="M79.6 104.9s15.7-22.5 20.7-30.1 8.8-8.4 22.7-8.4h25.8s-18.1 26.1-21.2 31.3c-3.1 5.3-12 7.2-19.8 7.2H79.6z" fill="#bdd860"/><path d="M148.9 57.1S133.2 34.6 128.2 27c-5-7.6-8.8-8.4-22.7-8.4H79.6s18.1 26 21.2 31.4 12 7.2 19.8 7.2l28.3-.1z" fill="#d72027"/></svg>