<svg width="620" height="620" viewBox="0 0 620 620" fill="none" xmlns="http://www.w3.org/2000/svg">
  <!-- Background guide circle -->
  <circle cx="310" cy="310" r="310" fill="#fff"/>
  
  <!-- All shapes wrapped in a group and shifted down to center vertically -->
  <g transform="translate(0, 58)">
    <!-- Your shapes -->
    <path d="M315.5 1.085c-150.5 3.5-222 85.5-254 197.5h32c9.5-72 88.5-170.5 222-170.5s190.903 83.483 230.5 178.5h26c-30.202-104.237-106-209-256.5-205.5z" fill="#525868" stroke="#525868"/>
    <path fill="#525868" stroke="#525868" d="M102.5 150.085h99v16h-99zm-29 130h181v16h-181z"/>
    <path fill="#525868" stroke="#525868" d="M73.5 280.085h181v16h-181zm117 68h11v108h-11zm-104-166h99v16h-99z"/>
    <circle cx="196.5" cy="330.085" r="21" fill="#525868" stroke="#525868"/>
    <circle cx="366.5" cy="345.085" r="15" fill="#525868" stroke="#525868"/>
    <path d="M608 231.085H499.5v25.5H608zm-341-8.5H12v25h255z" fill="#525868" stroke="#525868"/>
    <circle cx="606" cy="243.585" r="12.5" fill="#525868" stroke="#525868"/>
    <circle cx="222" cy="154.585" r="25.5" fill="#525868" stroke="#525868"/>
    <circle cx="265.5" cy="290.085" r="18" fill="#525868" stroke="#525868"/>
    <circle cx="470.5" cy="317.085" r="12" fill="#525868" stroke="#525868"/>
    <circle cx="400.5" cy="378.085" r="15" fill="#525868" stroke="#525868"/>
    <circle cx="315.5" cy="369.085" r="21" fill="#525868" stroke="#525868"/>
    <circle cx="268.5" cy="334.085" r="21" fill="#525868" stroke="#525868"/>
    <circle cx="234" cy="377.585" r="14.5" fill="#525868" stroke="#525868"/>
    <path d="M100.5 396.585c-29.593-48.102-36.325-73.214-43-117H84c7.086 37.515 12.771 59.002 40.5 102 19.691 33.699 81 76.5 81 76.5v23.5c-41.552-22.536-64.865-34.853-105-85z" fill="#525868" stroke="#525868"/>
    <path d="M239.5 389.585h-13v101.5c4.095 2.771 6.751 3.951 13 4.5zm36-37.5h-13l-1 150 14 1.5zm47.5 35.5h-13.5v120c4.855 1.556 7.82 1.524 13.5 0zm48-29.5h-13l-2 145.5 15-1.5zm37.5 33h-14v105l14-4.5zm18.5 92.5v-134l16 .5-1.5 126zm93-125.5c15.92-30.343 23.179-47.565 26.5-79.5h27c-2.489 35.923-8.637 55.491-27 89.5-33.596 53.133-52.572 71.759-86.5 98.5v-36.5c24.485-18.886 37.463-36.044 60-72" fill="#525868"/>
    <path d="M239.5 389.585h-13v101.5c4.095 2.771 6.751 3.951 13 4.5zm36-37.5h-13l-1 150 14 1.5zm47.5 35.5h-13.5v120c4.855 1.556 7.82 1.524 13.5 0zm48-29.5h-13l-2 145.5 15-1.5zm37.5 33h-14v105l14-4.5zm18.5 92.5v-134l16 .5-1.5 126zm93-125.5c15.92-30.343 23.179-47.565 26.5-79.5h27c-2.489 35.923-8.637 55.491-27 89.5-33.596 53.133-52.572 71.759-86.5 98.5v-36.5c24.485-18.886 37.463-36.044 60-72z" stroke="#525868"/>
    <circle cx="13" cy="235" r="12.5" fill="#525868" stroke="#525868"/>
    <path d="M459 319.5 427.5 349l15.5 2 26-23zM324 69l-64 156.5v22h15L324 128l52 177 46.5-125.5 30 55 14 22h35V231h-28L420 137l-44 110.5z" fill="#525868" stroke="#525868"/>
    <circle cx="323.5" cy="89.5" r="24" fill="#525868" stroke="#525868"/>
    <circle cx="375.5" cy="284.5" r="24" fill="#525868" stroke="#525868"/>
  </g>
</svg>